<?xml version="1.0" encoding="utf-8"?>
<!-- Generator: Adobe Illustrator 24.3.0, SVG Export Plug-In . SVG Version: 6.00 Build 0)  -->
<svg version="1.1" id="Layer_1" xmlns="http://www.w3.org/2000/svg" xmlns:xlink="http://www.w3.org/1999/xlink" x="0px" y="0px"
	 viewBox="0 0 511.95 146.49" style="enable-background:new 0 0 511.95 146.49;" xml:space="preserve">
<style type="text/css">
	.st0{fill:none;stroke:#FFFFFF;stroke-miterlimit:10;}
	.st1{display:none;fill:none;stroke:#FFFFFF;stroke-miterlimit:10;}
	.st2{fill:#FFFFFF;}
	.st3{fill:url(#SVGID_1_);}
	.st4{fill:url(#SVGID_2_);}
	.st5{fill:url(#SVGID_3_);}
	.st6{fill:url(#SVGID_4_);}
	.st7{fill:url(#SVGID_5_);}
	.st8{fill:url(#SVGID_6_);}
	.st9{fill:url(#SVGID_7_);}
	.st10{fill:url(#SVGID_8_);}
	.st11{fill:url(#SVGID_9_);}
	.st12{fill:url(#SVGID_10_);}
	.st13{fill:url(#SVGID_11_);}
	.st14{fill:#570CB1;}
</style>
<image style="display:none;overflow:visible;" width="626" height="626" xlink:href="F9C52A6C.jpg"  transform="matrix(1 0 0 1 39.2401 -244.6256)">
</image>
<image style="display:none;overflow:visible;" width="736" height="725" xlink:href="F9C52A6D.jpg"  transform="matrix(1 0 0 1 -643.6288 -265.7568)">
</image>
<path class="st0" d="M-777.11,937.11c0,0-6.19,42.71-40.85,80.47c0,0,19.81,113.9,6.19,199.94c0,0,25.38-102.14,18.57-194.99
	C-793.2,1022.54-776.49,972.4-777.11,937.11z"/>
<path class="st0" d="M-1013.08,1124.78l-62.8-47.44c-16.83-12.71-17.94-37.61-2.3-51.76c21.72-19.65,38.08-32.87,33.65-79.17
	c31.3,53.48,27.85,74.12,48.14,107.36c20.29,33.24,30.62,77.32-10.38,119.81c0,0,42.09-58.19-6.19-123.18
	c-8.92-14.09-18.56-38.5-22.69-49.47c-0.56-1.49-2.73-1.34-3.07,0.22c-2.24,10.1-9.16,30.79-29.4,41.4
	c-4.97,2.61-6.29,9.12-2.68,13.42l59.7,71.2"/>
<path class="st0" d="M-959.83,747.53c0,0-0.3,50.25,3.16,71.41c-197.27,47.05-64.75,127.46-202.88,198.57
	c111.37-116.55,13.81-173.1,192.52-209.79C-967.03,807.71-969.33,771.7-959.83,747.53z"/>
<path class="st0" d="M-872.17,752.46c0,0-7.79,30.53,2.05,52.66c0,0-55.32,17.21-47.94,57.37c0,0,8.2-37.29,57.78-40.98
	c16.39-0.82,74.99,29.91,146.7-28.28c-29.5,14.34-56.96,32.37-141.79,11.06C-855.37,804.29-868.9,789.55-872.17,752.46z"/>
<path class="st1" d="M-244.75-185.37c0,0-7.79,30.53,2.05,52.66c0,0-55.32,17.21-47.94,57.37c0,0,8.2-37.29,57.78-40.98
	c16.39-0.82,74.99,29.91,146.7-28.28c-29.5,14.34-56.96,32.37-141.79,11.06C-227.95-133.54-241.47-148.28-244.75-185.37z"/>
<path class="st0" d="M-840.21,944.44c14.75-54.09,90.15-42.62,163.5-78.27C-732.85,937.11-781.2,895.68-840.21,944.44z"/>
<path d="M-878.09,789.48c13.13-26.79,23.24-46.28,16.04-65.64c-7.19-19.36,0.23-29.32,1.29-47.18c1.06-17.86-7.06-38.74-41.12-41.52
	c-34.05-2.78-86.73,10.64-70.1,63.1c14.97,38.49,19.28,49.55,19.28,49.55c-39.36-39.38-70.3-97.11-5.21-127.15
	c63.34-17.57,107.66,4.32,110.33,41.46s-14.19,36.16-4.93,66.03C-850.29,736.23-851.85,755.23-878.09,789.48z"/>
<path d="M-959.07,902.73c5.71,0,10.54,3.77,12.13,8.96l0,0c3.79,5.72,11.12,3.25,11.12,3.25l-0.01,0.02c2.13-1.62,4.78-2.6,7.67-2.6
	c7,0,12.68,5.68,12.68,12.68s-5.68,12.68-12.68,12.68c-5.62,0-10.38-3.66-12.04-8.72l0,0c-4.05-5.23-11.41-3.34-11.41-3.34
	c-2.09,1.53-4.66,2.44-7.45,2.44c-7,0-12.68-5.68-12.68-12.68C-971.76,908.41-966.08,902.73-959.07,902.73z"/>
<path d="M-943.26,859.85c4.84,0,8.93,3.2,10.28,7.6l0,0c3.21,4.85,9.43,2.75,9.43,2.75l0,0.02c1.81-1.38,4.05-2.2,6.5-2.2
	c5.94,0,10.75,4.81,10.75,10.75s-4.81,10.75-10.75,10.75c-4.76,0-8.8-3.1-10.21-7.4l0,0c-3.43-4.43-9.67-2.83-9.68-2.83
	c-1.77,1.29-3.95,2.06-6.32,2.06c-5.94,0-10.75-4.81-10.75-10.75C-954.01,864.67-949.19,859.85-943.26,859.85z"/>
<path d="M-920.18,819.04c3.77,0.33,6.74,3.1,7.49,6.61l0,0c2.17,3.99,7.15,2.78,7.15,2.78l0,0.01c1.5-0.95,3.31-1.44,5.21-1.27
	c4.62,0.4,8.04,4.48,7.64,9.1s-4.48,8.04-9.1,7.64c-3.71-0.32-6.64-3.01-7.45-6.45l0,0c-2.37-3.68-7.34-2.86-7.34-2.86
	c-1.47,0.89-3.22,1.34-5.06,1.18c-4.62-0.4-8.04-4.48-7.64-9.1C-928.87,822.06-924.8,818.64-920.18,819.04z"/>
<path d="M-965.46,957.2c5.91-1.77,12.07,0.63,15.33,5.5l0,0c5.7,4.74,12.51-0.1,12.51-0.1l0,0.02c1.7-2.34,4.14-4.17,7.12-5.07
	c7.24-2.18,14.88,1.93,17.06,9.18c2.18,7.24-1.93,14.88-9.18,17.06c-5.81,1.75-11.87-0.56-15.17-5.28l0,0
	c-5.82-4.15-12.84,0.09-12.84,0.09c-1.69,2.23-4.07,3.97-6.95,4.84c-7.24,2.18-14.88-1.93-17.06-9.18
	C-976.81,967.01-972.7,959.37-965.46,957.2z"/>
<path d="M-956.42,1008.29c5.76-2.21,12.08-0.27,15.69,4.35l0,0c6.03,4.3,12.47-1.02,12.47-1.02l0,0.02
	c1.52-2.46,3.82-4.47,6.73-5.58c7.06-2.71,14.98,0.83,17.69,7.89c2.71,7.06-0.83,14.99-7.89,17.69c-5.67,2.17-11.88,0.32-15.52-4.15
	l0,0c-6.11-3.7-12.8,1.04-12.8,1.04c-1.52,2.35-3.76,4.26-6.57,5.34c-7.06,2.71-14.99-0.83-17.69-7.89S-963.49,1011-956.42,1008.29z
	"/>
<path d="M-944.23,1057.05c5.76-2.21,12.08-0.27,15.69,4.35l0,0c6.03,4.3,12.47-1.02,12.47-1.02l0,0.02
	c1.52-2.46,3.82-4.47,6.73-5.58c7.06-2.71,14.99,0.83,17.69,7.89s-0.83,14.98-7.89,17.69c-5.67,2.17-11.88,0.32-15.52-4.15l0,0
	c-6.11-3.7-12.8,1.04-12.8,1.04c-1.52,2.35-3.76,4.26-6.57,5.34c-7.06,2.71-14.99-0.83-17.69-7.89S-951.3,1059.76-944.23,1057.05z"
	/>
<path d="M-931.16,1102.67c5.94-1.67,12.06,0.85,15.23,5.78l0,0c5.61,4.84,12.51,0.13,12.51,0.13l0,0.02
	c1.74-2.31,4.22-4.1,7.22-4.94c7.28-2.05,14.85,2.2,16.89,9.48s-2.2,14.85-9.48,16.89c-5.84,1.64-11.86-0.78-15.07-5.56l0,0
	c-5.74-4.25-12.84-0.14-12.84-0.14c-1.73,2.2-4.14,3.89-7.04,4.71c-7.28,2.05-14.85-2.2-16.89-9.48S-938.44,1104.72-931.16,1102.67z
	"/>
<path d="M-924.2,1153c5.44-0.95,10.66,1.85,13.04,6.52l0,0c4.56,4.82,11.13,1.25,11.13,1.25l0,0.02c1.76-1.9,4.13-3.27,6.87-3.75
	c6.67-1.16,13.02,3.3,14.19,9.98s-3.3,13.02-9.98,14.19c-5.35,0.93-10.5-1.76-12.92-6.31l0,0c-4.73-4.31-11.43-1.29-11.43-1.29
	c-1.74,1.8-4.04,3.09-6.69,3.56c-6.67,1.16-13.02-3.3-14.19-9.98S-930.87,1154.16-924.2,1153z"/>
<path d="M-930.73,1193.92c4.74,0.51,8.41,4.08,9.26,8.53l0,0c2.63,5.09,8.94,3.69,8.94,3.69l-0.01,0.02
	c1.92-1.16,4.21-1.73,6.6-1.47c5.82,0.63,10.02,5.85,9.39,11.67s-5.85,10.02-11.67,9.39c-4.67-0.51-8.29-3.97-9.22-8.33l0,0
	c-2.89-4.7-9.18-3.8-9.18-3.8c-1.88,1.08-4.09,1.6-6.41,1.35c-5.82-0.63-10.02-5.85-9.39-11.67
	C-941.77,1197.5-936.55,1193.29-930.73,1193.92z"/>
<path d="M-949.36,1225.51c3.86,0.8,6.6,4.02,6.95,7.75l0,0c1.77,4.4,7.07,3.75,7.07,3.75l-0.01,0.01c1.67-0.8,3.6-1.09,5.55-0.69
	c4.74,0.98,7.78,5.61,6.81,10.34c-0.98,4.74-5.61,7.78-10.34,6.81c-3.8-0.78-6.51-3.92-6.93-7.58l0,0c-2.01-4.1-7.25-3.85-7.25-3.85
	c-1.63,0.74-3.49,1-5.38,0.61c-4.74-0.98-7.78-5.61-6.81-10.34S-954.1,1224.53-949.36,1225.51z"/>
<circle cx="-921.44" cy="854.65" r="6.9"/>
<circle cx="-937.92" cy="897.31" r="6.9"/>
<circle cx="-944.83" cy="948.62" r="9.27"/>
<circle cx="-940.4" cy="996.85" r="9.89"/>
<circle cx="-927.41" cy="1044.66" r="10.1"/>
<circle cx="-909.98" cy="1094.12" r="10.17"/>
<circle cx="-905.8" cy="1142.52" r="8.58"/>
<circle cx="-908.04" cy="1192.01" r="6.35"/>
<circle cx="-927.21" cy="1225.81" r="6.39"/>
<circle cx="-956.68" cy="1255.28" r="4.95"/>
<g>
	<path class="st2" d="M-1096.45-94.36c0,0-6.19,42.71-40.85,80.47c0,0,19.81,113.9,6.19,199.94c0,0,25.38-102.14,18.57-194.99
		C-1112.55-8.94-1095.83-59.08-1096.45-94.36z"/>
	<path class="st2" d="M-1332.42,93.3l-62.8-47.44c-16.83-12.71-17.94-37.61-2.3-51.76c21.72-19.65,38.08-32.87,33.65-79.17
		c31.3,53.48,27.85,74.12,48.14,107.36c20.29,33.24,30.62,77.32-10.38,119.81c0,0,42.09-58.19-6.19-123.18
		c-8.92-14.09-18.56-38.5-22.69-49.47c-0.56-1.49-2.73-1.34-3.07,0.22c-2.24,10.1-9.16,30.79-29.4,41.4
		c-4.97,2.61-6.29,9.12-2.68,13.42l59.7,71.2"/>
	<path class="st2" d="M-1279.17-283.95c0,0-0.3,50.25,3.16,71.41c-197.27,47.05-64.75,127.46-202.88,198.57
		c111.37-116.55,13.81-173.1,192.52-209.79C-1286.38-223.77-1288.67-259.77-1279.17-283.95z"/>
	<path class="st2" d="M-1032.93-238.25c-14.45,12.16-44.1,33.39-84.03,37.19c-12.71,1.21-29.53,2.75-47.65-6.26
		c-1.8-0.89-3.5-1.84-5.13-2.82c-19.06-11.56-29.37-33.55-24.88-55.39c0.33-1.63,0.72-3.15,1.14-4.57c0.18-0.6,0.36-1.19,0.55-1.78
		c0.49-1.51,1.04-3.06,1.64-4.64c-0.09,3.66,0.02,8.66,0.9,14.52c0.55,3.64,1.17,7.75,2.98,12.65c0,0,3.08,8.6,9.98,16.29
		c11.03,12.3,28.65,16.37,37.29,17.38c30.71,3.58,50.68-1.15,66.3-5.63C-1057.56-225.98-1043.89-232.19-1032.93-238.25z"/>
	<path class="st2" d="M-1159.55-87.04c14.75-54.09,90.15-42.62,163.5-78.27C-1052.19-94.36-1100.55-135.8-1159.55-87.04z"/>
	<path d="M-1174.37-238.66c-15.22-26.58-15.01-40.76-11.57-48.87c1.22-2.87,5.04-10.18,4.55-20.12c-0.29-5.94-2.55-7.31-2.98-13.04
		c-0.89-11.8,3.48-20.75,4.28-34.14c1.06-17.86-7.06-38.74-41.12-41.52c-34.05-2.78-86.73,10.64-70.1,63.1
		c14.97,38.49,19.28,49.55,19.28,49.55c-39.36-39.38-70.3-97.11-5.21-127.15c63.34-17.57,107.66,4.32,110.33,41.46
		c1.94,26.98-6.42,33.84-7.6,47.02c-0.82,9.23,3.2,10.37,2.67,19.01c-0.59,9.61-5.08,14.77-7.67,20.53
		C-1183.18-274.64-1184.83-261.23-1174.37-238.66z"/>
	<path d="M-1278.42-128.75c5.71,0,10.54,3.77,12.13,8.96l0,0c3.79,5.72,11.12,3.25,11.12,3.25l-0.01,0.02
		c2.13-1.62,4.78-2.6,7.67-2.6c7,0,12.68,5.68,12.68,12.68s-5.68,12.68-12.68,12.68c-5.62,0-10.38-3.66-12.04-8.72l0,0
		c-4.05-5.23-11.41-3.34-11.41-3.34c-2.09,1.53-4.66,2.44-7.45,2.44c-7,0-12.68-5.68-12.68-12.68S-1285.42-128.75-1278.42-128.75z"
		/>
	<path d="M-1262.6-171.62c4.84,0,8.93,3.2,10.28,7.6l0,0c3.21,4.85,9.43,2.75,9.43,2.75l0,0.02c1.81-1.38,4.05-2.2,6.5-2.2
		c5.94,0,10.75,4.81,10.75,10.75s-4.81,10.75-10.75,10.75c-4.76,0-8.8-3.1-10.21-7.4l0,0c-3.43-4.43-9.67-2.83-9.68-2.83
		c-1.77,1.29-3.95,2.06-6.32,2.06c-5.94,0-10.75-4.81-10.75-10.75S-1268.54-171.62-1262.6-171.62z"/>
	<path d="M-1247.14-210.13c3.71-0.74,7.33,1.08,9.04,4.24l0,0c3.21,3.22,7.65,0.66,7.65,0.66l0,0.01c1.17-1.33,2.77-2.31,4.64-2.69
		c4.55-0.91,8.98,2.04,9.89,6.58s-2.04,8.98-6.58,9.89c-3.65,0.73-7.22-1.02-8.96-4.1l0,0c-3.31-2.87-7.85-0.68-7.85-0.68
		c-1.16,1.26-2.71,2.19-4.52,2.55c-4.55,0.91-8.98-2.04-9.89-6.58S-1251.69-209.22-1247.14-210.13z"/>
	<path d="M-1245.03-251.04c2.71-0.94,5.62,0.06,7.23,2.26v0c2.74,2.09,5.81-0.28,5.81-0.28l0,0.01c0.75-1.12,1.84-2.02,3.21-2.49
		c3.33-1.15,6.95,0.61,8.1,3.94c1.15,3.33-0.61,6.95-3.94,8.1c-2.67,0.92-5.53-0.03-7.15-2.16v0c-2.78-1.82-5.97,0.29-5.97,0.29
		c-0.74,1.07-1.81,1.92-3.14,2.38c-3.33,1.15-6.95-0.61-8.1-3.94C-1250.12-246.27-1248.36-249.89-1245.03-251.04z"/>
	<path d="M-1284.8-74.28c5.91-1.77,12.07,0.63,15.33,5.5v0c5.7,4.74,12.51-0.1,12.51-0.1l0,0.02c1.7-2.34,4.14-4.17,7.12-5.07
		c7.24-2.18,14.88,1.93,17.06,9.18c2.18,7.24-1.93,14.88-9.18,17.06c-5.81,1.75-11.87-0.56-15.17-5.28v0
		c-5.82-4.15-12.84,0.09-12.84,0.09c-1.69,2.23-4.07,3.97-6.95,4.84c-7.24,2.18-14.88-1.93-17.06-9.18S-1292.05-72.1-1284.8-74.28z"
		/>
	<path d="M-1275.77-23.19c5.76-2.21,12.08-0.27,15.69,4.35l0,0c6.03,4.3,12.47-1.02,12.47-1.02l0,0.02
		c1.52-2.46,3.82-4.47,6.73-5.58c7.06-2.71,14.98,0.83,17.69,7.89s-0.83,14.99-7.89,17.69c-5.67,2.17-11.88,0.32-15.52-4.15l0,0
		c-6.11-3.7-12.8,1.04-12.8,1.04c-1.52,2.35-3.76,4.26-6.57,5.34c-7.06,2.71-14.99-0.83-17.69-7.89S-1282.83-20.48-1275.77-23.19z"
		/>
	<path d="M-1263.57,25.57c5.76-2.21,12.08-0.27,15.69,4.35l0,0c6.03,4.3,12.47-1.02,12.47-1.02l0,0.02
		c1.52-2.46,3.82-4.47,6.73-5.58c7.06-2.71,14.98,0.83,17.69,7.89s-0.83,14.99-7.89,17.69c-5.67,2.17-11.88,0.32-15.52-4.15l0,0
		c-6.11-3.7-12.8,1.04-12.8,1.04c-1.52,2.35-3.76,4.26-6.57,5.34c-7.06,2.71-14.99-0.83-17.69-7.89S-1270.64,28.28-1263.57,25.57z"
		/>
	<path d="M-1250.5,71.2c5.94-1.67,12.06,0.85,15.23,5.78l0,0c5.61,4.84,12.51,0.13,12.51,0.13l0,0.02c1.74-2.31,4.22-4.1,7.22-4.94
		c7.28-2.05,14.85,2.2,16.89,9.48s-2.2,14.85-9.48,16.89c-5.84,1.64-11.86-0.78-15.07-5.56l0,0c-5.74-4.25-12.84-0.14-12.84-0.14
		c-1.73,2.2-4.14,3.89-7.04,4.71c-7.28,2.05-14.85-2.2-16.89-9.48C-1262.03,80.8-1257.78,73.24-1250.5,71.2z"/>
	<path d="M-1243.54,121.52c5.44-0.95,10.66,1.85,13.04,6.52l0,0c4.56,4.82,11.13,1.25,11.13,1.25l0,0.02
		c1.76-1.9,4.13-3.27,6.87-3.75c6.67-1.16,13.02,3.3,14.19,9.98c1.16,6.67-3.3,13.02-9.98,14.19c-5.35,0.93-10.5-1.76-12.92-6.31
		l0,0c-4.73-4.31-11.43-1.29-11.43-1.29c-1.74,1.8-4.04,3.09-6.69,3.56c-6.67,1.16-13.02-3.3-14.19-9.98
		C-1254.68,129.03-1250.22,122.68-1243.54,121.52z"/>
	<circle cx="-1240.78" cy="-176.83" r="6.9"/>
	<circle cx="-1234.82" cy="-224.47" r="6.9"/>
	<circle cx="-1257.27" cy="-134.17" r="6.9"/>
	<circle cx="-1264.17" cy="-82.85" r="9.27"/>
	<circle cx="-1259.74" cy="-34.63" r="9.89"/>
	<circle cx="-1246.76" cy="13.18" r="10.1"/>
	<circle cx="-1229.32" cy="62.64" r="10.17"/>
	<circle cx="-1225.15" cy="111.04" r="8.58"/>
</g>
<g>
	<g>
		<linearGradient id="SVGID_1_" gradientUnits="userSpaceOnUse" x1="71.9681" y1="137.1309" x2="74.2981" y2="137.1309">
			<stop  offset="0" style="stop-color:#B172F5"/>
			<stop  offset="1" style="stop-color:#570CB1"/>
		</linearGradient>
		<path class="st3" d="M72.23,137.11c-0.08,0.08-0.17,0.16-0.26,0.23c0.78-0.01,1.56-0.03,2.33-0.07
			C73.41,136.58,72.23,137.11,72.23,137.11z"/>
		<linearGradient id="SVGID_2_" gradientUnits="userSpaceOnUse" x1="12.9224" y1="78.9388" x2="129.7027" y2="78.9388">
			<stop  offset="0" style="stop-color:#B172F5"/>
			<stop  offset="1" style="stop-color:#570CB1"/>
		</linearGradient>
		<path class="st4" d="M71.31,20.57c-32.25,0-58.39,26.14-58.39,58.39c0,26.8,18.06,49.39,42.68,56.25
			c1.82-3.67,4.61-12.2-2.27-21.47c-1.69-2.67-3.52-7.3-4.3-9.38c-0.11-0.28-0.52-0.25-0.58,0.04c-0.42,1.92-1.74,5.84-5.58,7.85
			c-0.94,0.49-1.19,1.73-0.51,2.54l10.94,13.05h0l0.38,0.45l-0.38-0.45l-11.91-9c-3.19-2.41-3.4-7.13-0.44-9.82
			c4.12-3.73,7.22-6.23,6.38-15.01c5.94,10.14,5.28,14.06,9.13,20.36c3.57,5.84,5.51,13.45-0.42,20.95
			c4.18,1.13,8.55,1.81,13.05,1.97c-0.43-0.34-0.74-0.83-0.84-1.41c-0.22-1.27,0.63-2.47,1.89-2.69c1.03-0.18,2.02,0.35,2.47,1.24
			l0,0c0.86,0.91,2.11,0.24,2.11,0.24l0,0c0.33-0.36,0.78-0.62,1.3-0.71c1.27-0.22,2.47,0.63,2.69,1.89
			c0.06,0.35,0.04,0.7-0.05,1.03c4.77-0.6,9.36-1.78,13.7-3.46c0.13-13.25-2.08-25.91-2.08-25.91c6.57-7.16,7.75-15.26,7.75-15.26
			c0.12,6.69-3.05,16.2-3.05,16.2c0.62,8.51-0.18,17.44-1.17,24.39c21.07-8.81,35.87-29.62,35.87-53.89
			C129.7,46.71,103.56,20.57,71.31,20.57z M25.53,107.51c21.12-22.1,2.62-32.83,36.51-39.79c0,0-0.44-6.83,1.37-11.41
			c0,0-0.06,9.53,0.6,13.54C26.59,78.77,51.72,94.02,25.53,107.51z M71.25,62.98c0.52,0.4,1.1-0.05,1.1-0.05l0,0
			c0.14-0.21,0.35-0.38,0.61-0.47c0.63-0.22,1.32,0.12,1.54,0.75c0.22,0.63-0.12,1.32-0.75,1.54c-0.51,0.17-1.05-0.01-1.36-0.41v0
			c-0.53-0.34-1.13,0.05-1.13,0.05c-0.14,0.2-0.34,0.36-0.6,0.45c-0.63,0.22-1.32-0.12-1.54-0.75c-0.22-0.63,0.12-1.32,0.75-1.54
			C70.39,62.37,70.95,62.56,71.25,62.98L71.25,62.98z M73.13,67.59c0,0.72-0.59,1.31-1.31,1.31c-0.72,0-1.31-0.59-1.31-1.31
			c0-0.72,0.59-1.31,1.31-1.31C72.54,66.28,73.13,66.86,73.13,67.59z M69.48,70.31c0.7-0.14,1.39,0.2,1.71,0.8l0,0
			c0.61,0.61,1.45,0.12,1.45,0.12l0,0c0.22-0.25,0.52-0.44,0.88-0.51c0.86-0.17,1.7,0.39,1.88,1.25s-0.39,1.7-1.25,1.88
			c-0.69,0.14-1.37-0.19-1.7-0.78l0,0c-0.63-0.54-1.49-0.13-1.49-0.13c-0.22,0.24-0.51,0.42-0.86,0.48
			c-0.86,0.17-1.7-0.39-1.88-1.25C68.06,71.32,68.62,70.48,69.48,70.31z M71.99,76.62c0,0.72-0.59,1.31-1.31,1.31
			c-0.72,0-1.31-0.59-1.31-1.31c0-0.72,0.59-1.31,1.31-1.31C71.41,75.31,71.99,75.9,71.99,76.62z M68.5,79.05L68.5,79.05
			c0.61,0.92,1.79,0.52,1.79,0.52l0,0c0.34-0.26,0.77-0.42,1.23-0.42c1.13,0,2.04,0.91,2.04,2.04c0,1.13-0.91,2.04-2.04,2.04
			c-0.9,0-1.67-0.59-1.94-1.4l0,0c-0.65-0.84-1.83-0.54-1.83-0.54c-0.34,0.25-0.75,0.39-1.2,0.39c-1.13,0-2.04-0.91-2.04-2.04
			c0-1.13,0.91-2.04,2.04-2.04C67.47,77.61,68.24,78.22,68.5,79.05z M68.87,84.71c0,0.72-0.59,1.31-1.31,1.31s-1.31-0.59-1.31-1.31
			c0-0.72,0.59-1.31,1.31-1.31S68.87,83.99,68.87,84.71z M65.85,87.44L65.85,87.44c0.72,1.08,2.11,0.62,2.11,0.62l0,0
			c0.4-0.31,0.91-0.49,1.45-0.49c1.33,0,2.41,1.08,2.41,2.41s-1.08,2.41-2.41,2.41c-1.07,0-1.97-0.69-2.28-1.65l0,0
			c-0.77-0.99-2.16-0.63-2.16-0.63c-0.4,0.29-0.88,0.46-1.41,0.46c-1.33,0-2.41-1.08-2.41-2.41c0-1.33,1.08-2.41,2.41-2.41
			C64.63,85.74,65.55,86.46,65.85,87.44z M68.01,94.44c0,0.97-0.79,1.76-1.76,1.76s-1.76-0.79-1.76-1.76s0.79-1.76,1.76-1.76
			S68.01,93.47,68.01,94.44z M60.6,99.31c-0.41-1.37,0.37-2.82,1.74-3.24c1.12-0.34,2.29,0.12,2.91,1.04v0
			c1.08,0.9,2.37-0.02,2.37-0.02l0,0c0.32-0.44,0.79-0.79,1.35-0.96c1.37-0.41,2.82,0.37,3.24,1.74c0.41,1.37-0.37,2.82-1.74,3.24
			c-1.1,0.33-2.25-0.11-2.88-1v0c-1.1-0.79-2.44,0.02-2.44,0.02c-0.32,0.42-0.77,0.75-1.32,0.92
			C62.46,101.46,61.01,100.68,60.6,99.31z M68.97,103.59c0,1.04-0.84,1.88-1.88,1.88c-1.04,0-1.88-0.84-1.88-1.88
			c0-1.04,0.84-1.88,1.88-1.88C68.13,101.71,68.97,102.55,68.97,103.59z M62.55,109.11c-0.51-1.34,0.16-2.84,1.5-3.36
			c1.09-0.42,2.29-0.05,2.98,0.83l0,0c1.14,0.82,2.37-0.19,2.37-0.19l0,0c0.29-0.47,0.72-0.85,1.28-1.06
			c1.34-0.51,2.84,0.16,3.36,1.5c0.51,1.34-0.16,2.84-1.5,3.36c-1.08,0.41-2.25,0.06-2.94-0.79l0,0c-1.16-0.7-2.43,0.2-2.43,0.2
			c-0.29,0.45-0.71,0.81-1.25,1.01C64.57,111.12,63.07,110.45,62.55,109.11z M71.47,112.66c0,1.06-0.86,1.92-1.92,1.92
			c-1.06,0-1.92-0.86-1.92-1.92c0-1.06,0.86-1.92,1.92-1.92C70.61,110.74,71.47,111.6,71.47,112.66z M64.87,118.36
			c-0.51-1.34,0.16-2.84,1.5-3.36c1.09-0.42,2.29-0.05,2.98,0.83l0,0c1.14,0.82,2.37-0.19,2.37-0.19l0,0
			c0.29-0.47,0.72-0.85,1.28-1.06c1.34-0.51,2.84,0.16,3.36,1.5c0.51,1.34-0.16,2.84-1.5,3.36c-1.08,0.41-2.25,0.06-2.94-0.79l0,0
			c-1.16-0.7-2.43,0.2-2.43,0.2c-0.29,0.45-0.71,0.81-1.25,1.01C66.88,120.37,65.38,119.7,64.87,118.36z M74.79,122.04
			c0,1.07-0.86,1.93-1.93,1.93c-1.06,0-1.93-0.86-1.93-1.93c0-1.06,0.86-1.93,1.93-1.93C73.92,120.11,74.79,120.97,74.79,122.04z
			 M73.65,132.84c-0.9,0-1.63-0.73-1.63-1.63s0.73-1.63,1.63-1.63c0.9,0,1.63,0.73,1.63,1.63S74.55,132.84,73.65,132.84z
			 M76.88,128.85c-1.11,0.31-2.25-0.15-2.86-1.05l0,0c-1.09-0.81-2.44-0.03-2.44-0.03c-0.33,0.42-0.78,0.74-1.33,0.89
			c-1.38,0.39-2.82-0.42-3.2-1.8c-0.39-1.38,0.42-2.82,1.8-3.2c1.13-0.32,2.29,0.16,2.89,1.1l0,0c1.06,0.92,2.37,0.02,2.37,0.02l0,0
			c0.33-0.44,0.8-0.78,1.37-0.94c1.38-0.39,2.82,0.42,3.2,1.8C79.06,127.03,78.26,128.46,76.88,128.85z M74.4,34.99
			c-6.46-0.53-16.45,2.02-13.3,11.97c2.84,7.3,3.66,9.4,3.66,9.4c-7.46-7.47-13.33-18.42-0.99-24.11
			c12.01-3.33,20.42,0.82,20.92,7.86c0.37,5.12-1.22,6.42-1.44,8.92c-0.16,1.75,0.61,1.97,0.51,3.6c-0.11,1.82-0.96,2.8-1.45,3.89
			c-0.7,1.55-1.01,4.09,0.98,8.37c-2.89-5.04-2.85-7.73-2.2-9.27c0.23-0.54,0.96-1.93,0.86-3.82c-0.06-1.13-0.48-1.39-0.57-2.47
			c-0.17-2.24,0.66-3.94,0.81-6.47C82.4,39.48,80.85,35.52,74.4,34.99z M84.16,70.31c-3.61-2.19-5.57-6.36-4.72-10.5
			c0.06-0.31,0.14-0.6,0.22-0.87c0.03-0.11,0.07-0.23,0.11-0.34c0.09-0.29,0.2-0.58,0.31-0.88c-0.02,0.69,0,1.64,0.17,2.75
			c0.1,0.69,0.22,1.47,0.56,2.4c0,0,0.58,1.63,1.89,3.09c2.09,2.33,5.43,3.11,7.07,3.3c5.82,0.68,9.61-0.22,12.57-1.07
			c3.08-0.89,5.68-2.06,7.76-3.21c-2.74,2.31-8.36,6.33-15.94,7.05c-2.41,0.23-5.6,0.52-9.04-1.19
			C84.79,70.67,84.47,70.49,84.16,70.31z M86.09,93.65c2.8-10.26,17.1-8.08,31.01-14.84C106.45,92.26,97.28,84.4,86.09,93.65z"/>
	</g>
	<g>
		<g>
			<linearGradient id="SVGID_3_" gradientUnits="userSpaceOnUse" x1="104.87" y1="85.0061" x2="476.2201" y2="-24.8728">
				<stop  offset="0" style="stop-color:#B172F5"/>
				<stop  offset="1" style="stop-color:#570CB1"/>
			</linearGradient>
			<path class="st5" d="M138.61,69.23c0-11.47,7.73-19.1,19.31-19.1c6.11,0,10.87,2.17,14.4,6.06l-3.39,3.44
				c-2.38-2.93-6.06-5.05-10.87-5.05c-8.34,0-13.85,5.86-13.85,14.66c0,8.89,5.56,14.86,13.8,14.86c5.36,0,9.25-2.48,11.78-6.27
				l3.69,3.34c-3.49,4.65-8.84,7.38-15.52,7.38C146.39,88.54,138.61,80.81,138.61,69.23z"/>
			<linearGradient id="SVGID_4_" gradientUnits="userSpaceOnUse" x1="107.9221" y1="95.321" x2="479.2722" y2="-14.5579">
				<stop  offset="0" style="stop-color:#B172F5"/>
				<stop  offset="1" style="stop-color:#570CB1"/>
			</linearGradient>
			<path class="st6" d="M211.94,50.64v37.4h-5.36V71.26h-21.63v16.78h-5.41v-37.4h5.41v16.12h21.63V50.64H211.94z"/>
			<linearGradient id="SVGID_5_" gradientUnits="userSpaceOnUse" x1="111.6833" y1="108.0323" x2="483.0334" y2="-1.8466">
				<stop  offset="0" style="stop-color:#B172F5"/>
				<stop  offset="1" style="stop-color:#570CB1"/>
			</linearGradient>
			<path class="st7" d="M252.78,64.33v23.7h-5.36V76.16H226.5v11.88h-5.36v-23.7c0-8.54,6.32-14.2,15.82-14.2
				S252.78,55.79,252.78,64.33z M247.42,71.66v-7.08c0-5.96-4.19-10.01-10.41-10.01c-6.32,0-10.51,4.04-10.51,10.01v7.08H247.42z"/>
			<linearGradient id="SVGID_6_" gradientUnits="userSpaceOnUse" x1="114.6026" y1="117.8987" x2="485.9527" y2="8.0198">
				<stop  offset="0" style="stop-color:#B172F5"/>
				<stop  offset="1" style="stop-color:#570CB1"/>
			</linearGradient>
			<path class="st8" d="M261.97,50.64h3.39l24.86,28.2l-0.15-28.2h5.41v37.4h-3.39l-24.81-28.2l0.1,28.2h-5.41V50.64z"/>
			<linearGradient id="SVGID_7_" gradientUnits="userSpaceOnUse" x1="117.4016" y1="127.3583" x2="488.7517" y2="17.4793">
				<stop  offset="0" style="stop-color:#B172F5"/>
				<stop  offset="1" style="stop-color:#570CB1"/>
			</linearGradient>
			<path class="st9" d="M336.97,69.39c0,11.17-7.28,18.65-18.24,18.65h-13.65v-37.4h13.65C329.7,50.64,336.97,58.12,336.97,69.39z
				 M331.41,69.39c0-8.59-5.15-14.3-12.89-14.3h-8.04v28.5h8.04C326.26,83.59,331.41,77.88,331.41,69.39z"/>
			<linearGradient id="SVGID_8_" gradientUnits="userSpaceOnUse" x1="121.094" y1="139.8372" x2="492.4441" y2="29.9583">
				<stop  offset="0" style="stop-color:#B172F5"/>
				<stop  offset="1" style="stop-color:#570CB1"/>
			</linearGradient>
			<path class="st10" d="M368.16,88.03l-9.3-14.55h-0.46h-8.74v14.55h-5.41v-37.4h14.71c7.68,0,12.79,4.55,12.79,11.42
				c0,5-2.83,8.79-7.48,10.46l10.21,15.51H368.16z M349.66,69.03H358c4.9,0,8.14-2.78,8.14-6.97s-3.13-6.97-7.83-6.97h-8.64V69.03z"
				/>
			<linearGradient id="SVGID_9_" gradientUnits="userSpaceOnUse" x1="124.4626" y1="151.2216" x2="495.8127" y2="41.3427">
				<stop  offset="0" style="stop-color:#B172F5"/>
				<stop  offset="1" style="stop-color:#570CB1"/>
			</linearGradient>
			<path class="st11" d="M411.52,64.33v23.7h-5.36V76.16h-20.92v11.88h-5.36v-23.7c0-8.54,6.32-14.2,15.82-14.2
				C405.2,50.13,411.52,55.79,411.52,64.33z M406.16,71.66v-7.08c0-5.96-4.19-10.01-10.41-10.01c-6.32,0-10.51,4.04-10.51,10.01
				v7.08H406.16z"/>
			<linearGradient id="SVGID_10_" gradientUnits="userSpaceOnUse" x1="127.9831" y1="163.1196" x2="499.3331" y2="53.2407">
				<stop  offset="0" style="stop-color:#B172F5"/>
				<stop  offset="1" style="stop-color:#570CB1"/>
			</linearGradient>
			<path class="st12" d="M431.99,84.04l2.12-3.69c2.98,2.68,6.57,3.74,10.26,3.74c5.36,0,8.64-2.17,8.64-5.66
				c0-3.69-3.64-5.31-8.84-6.82l-2.32-0.66c-5.66-1.57-10.21-4.04-10.21-10.06c0-6.47,5.31-10.76,13.29-10.76
				c4.9,0,8.89,1.47,12.08,4.3l-2.43,3.74c-2.68-2.38-5.76-3.59-9.65-3.59c-4.65,0-7.68,2.22-7.68,5.51c0,3.59,3.28,4.9,7.13,6.01
				l2.43,0.66c5.56,1.62,11.83,4.45,11.83,11.17c0,6.37-5.61,10.61-13.95,10.61C439.72,88.54,435.07,87.07,431.99,84.04z"/>
			<linearGradient id="SVGID_11_" gradientUnits="userSpaceOnUse" x1="130.8727" y1="172.8855" x2="502.2228" y2="63.0066">
				<stop  offset="0" style="stop-color:#B172F5"/>
				<stop  offset="1" style="stop-color:#570CB1"/>
			</linearGradient>
			<path class="st13" d="M476.41,71.16h-5.21v16.88h-5.41v-37.4h5.41v16.02h5.16l12.48-16.02h6.47l-14.35,18.19l14.91,19.2h-6.47
				L476.41,71.16z"/>
		</g>
		<g>
			<path class="st14" d="M143.87,103.16h1.53v10.56h-1.53V103.16z"/>
			<path class="st14" d="M148.11,103.16h0.96l7.02,7.96l-0.04-7.96h1.53v10.56h-0.96l-7-7.96l0.03,7.96h-1.53V103.16z"/>
			<path class="st14" d="M167.27,104.41h-3.31v9.3h-1.53v-9.3h-3.31v-1.26h8.15V104.41z"/>
			<path class="st14" d="M175.76,112.46v1.26h-6.93v-10.56h6.82v1.26h-5.29v3.31h4.89v1.26h-4.89v3.48H175.76z"/>
			<path class="st14" d="M184.67,113.72l-2.62-4.11h-0.13h-2.47v4.11h-1.53v-10.56h4.15c2.17,0,3.61,1.28,3.61,3.22
				c0,1.41-0.8,2.48-2.11,2.95l2.88,4.38H184.67z M179.44,108.35h2.35c1.38,0,2.3-0.79,2.3-1.97c0-1.18-0.88-1.97-2.21-1.97h-2.44
				V108.35z"/>
			<path class="st14" d="M186.45,103.16h1.63l3.67,8.69l3.64-8.69h1.63l-4.57,10.56h-1.43L186.45,103.16z"/>
			<path class="st14" d="M205.31,112.46v1.26h-6.93v-10.56h6.82v1.26h-5.29v3.31h4.89v1.26h-4.89v3.48H205.31z"/>
			<path class="st14" d="M207.47,103.16h0.96l7.02,7.96l-0.04-7.96h1.53v10.56h-0.96l-7-7.96l0.03,7.96h-1.53V103.16z"/>
			<path class="st14" d="M226.63,104.41h-3.31v9.3h-1.53v-9.3h-3.31v-1.26h8.15V104.41z"/>
			<path class="st14" d="M228.19,103.16h1.53v10.56h-1.53V103.16z"/>
			<path class="st14" d="M231.76,108.44c0-3.25,2.17-5.42,5.41-5.42c3.22,0,5.39,2.17,5.39,5.42c0,3.25-2.17,5.42-5.39,5.42
				C233.93,113.86,231.76,111.69,231.76,108.44z M240.99,108.44c0-2.5-1.54-4.17-3.82-4.17c-2.3,0-3.82,1.67-3.82,4.17
				c0,2.5,1.53,4.17,3.82,4.17C239.45,112.6,240.99,110.93,240.99,108.44z"/>
			<path class="st14" d="M244.6,103.16h0.96l7.02,7.96l-0.04-7.96h1.53v10.56h-0.96l-7-7.96l0.03,7.96h-1.53V103.16z"/>
			<path class="st14" d="M265.59,107.02v6.69h-1.51v-3.35h-5.91v3.35h-1.51v-6.69c0-2.41,1.78-4.01,4.47-4.01
				C263.8,103.01,265.59,104.61,265.59,107.02z M264.08,109.09v-2c0-1.68-1.18-2.82-2.94-2.82c-1.78,0-2.97,1.14-2.97,2.82v2H264.08
				z"/>
			<path class="st14" d="M274.53,112.46v1.26h-6.35v-10.56h1.53v9.3H274.53z"/>
			<path class="st14" d="M286.99,106.47c0,2.04-1.44,3.41-3.61,3.41h-2.48v3.84h-1.53v-10.56h4.05
				C285.57,103.16,286.99,104.48,286.99,106.47z M285.41,106.51c0-1.25-0.86-2.1-2.17-2.1h-2.34v4.21h2.34
				C284.58,108.62,285.41,107.78,285.41,106.51z"/>
			<path class="st14" d="M297.59,107.02v6.69h-1.51v-3.35h-5.91v3.35h-1.51v-6.69c0-2.41,1.78-4.01,4.47-4.01
				C295.81,103.01,297.59,104.61,297.59,107.02z M296.08,109.09v-2c0-1.68-1.18-2.82-2.94-2.82c-1.78,0-2.97,1.14-2.97,2.82v2
				H296.08z"/>
			<path class="st14" d="M300.19,103.16h1.53v10.56h-1.53V103.16z"/>
			<path class="st14" d="M304.43,103.16h0.96l7.02,7.96l-0.04-7.96h1.53v10.56h-0.96l-7-7.96l0.03,7.96h-1.53V103.16z"/>
			<path class="st14" d="M330.53,113.72l-0.44-8l-3.65,8h-0.87l-3.64-7.98l-0.44,7.98h-1.53l0.67-10.63h1.64l3.74,8.17l3.72-8.17
				h1.64l0.67,10.63H330.53z"/>
			<path class="st14" d="M343.26,107.02v6.69h-1.51v-3.35h-5.91v3.35h-1.51v-6.69c0-2.41,1.78-4.01,4.47-4.01
				C341.47,103.01,343.26,104.61,343.26,107.02z M341.74,109.09v-2c0-1.68-1.18-2.82-2.94-2.82c-1.78,0-2.97,1.14-2.97,2.82v2
				H341.74z"/>
			<path class="st14" d="M345.85,103.16h0.96l7.02,7.96l-0.04-7.96h1.53v10.56h-0.96l-7-7.96l0.03,7.96h-1.53V103.16z"/>
			<path class="st14" d="M366.84,107.02v6.69h-1.51v-3.35h-5.91v3.35h-1.51v-6.69c0-2.41,1.78-4.01,4.47-4.01
				C365.06,103.01,366.84,104.61,366.84,107.02z M365.33,109.09v-2c0-1.68-1.18-2.82-2.94-2.82c-1.78,0-2.97,1.14-2.97,2.82v2
				H365.33z"/>
			<path class="st14" d="M379.16,108.44c0,3.28-1.97,5.42-5.08,5.42c-3.18,0-5.29-2.17-5.29-5.42c0-3.25,2.1-5.42,5.29-5.42
				c1.46,0,2.62,0.34,3.62,1.13l-1,0.96c-0.66-0.57-1.53-0.83-2.61-0.83c-2.24,0-3.74,1.67-3.74,4.17c0,2.5,1.5,4.17,3.74,4.17
				c2.03,0,3.35-1.34,3.48-3.4h-3.07v-1.25h4.64C379.16,108.11,379.16,108.28,379.16,108.44z"/>
			<path class="st14" d="M387.88,112.46v1.26h-6.93v-10.56h6.82v1.26h-5.29v3.31h4.89v1.26h-4.89v3.48H387.88z"/>
			<path class="st14" d="M400.29,113.72l-0.44-8l-3.65,8h-0.87l-3.64-7.98l-0.44,7.98h-1.53l0.67-10.63h1.64l3.74,8.17l3.72-8.17
				h1.64l0.67,10.63H400.29z"/>
			<path class="st14" d="M411.14,112.46v1.26h-6.93v-10.56h6.82v1.26h-5.29v3.31h4.89v1.26h-4.89v3.48H411.14z"/>
			<path class="st14" d="M413.29,103.16h0.96l7.02,7.96l-0.04-7.96h1.53v10.56h-0.96l-7-7.96l0.03,7.96h-1.53V103.16z"/>
			<path class="st14" d="M432.45,104.41h-3.31v9.3h-1.53v-9.3h-3.31v-1.26h8.15V104.41z"/>
			<path class="st14" d="M436.59,108.41c0-3.24,2.18-5.39,5.45-5.39c1.73,0,3.07,0.61,4.07,1.71l-0.96,0.97
				c-0.67-0.83-1.71-1.43-3.07-1.43c-2.35,0-3.91,1.65-3.91,4.14c0,2.51,1.57,4.19,3.89,4.19c1.51,0,2.61-0.7,3.32-1.77l1.04,0.94
				c-0.98,1.31-2.5,2.08-4.38,2.08C438.79,113.86,436.59,111.68,436.59,108.41z"/>
			<path class="st14" d="M455.09,112.46v1.26h-6.93v-10.56h6.82v1.26h-5.29v3.31h4.89v1.26h-4.89v3.48H455.09z"/>
			<path class="st14" d="M457.24,103.16h0.96l7.02,7.96l-0.04-7.96h1.53v10.56h-0.96l-7-7.96l0.03,7.96h-1.53V103.16z"/>
			<path class="st14" d="M476.4,104.41h-3.31v9.3h-1.53v-9.3h-3.31v-1.26h8.15V104.41z"/>
			<path class="st14" d="M484.71,113.72l-2.62-4.11h-0.13h-2.47v4.11h-1.53v-10.56h4.15c2.17,0,3.61,1.28,3.61,3.22
				c0,1.41-0.8,2.48-2.11,2.95l2.88,4.38H484.71z M479.49,108.35h2.35c1.38,0,2.3-0.79,2.3-1.97c0-1.18-0.88-1.97-2.21-1.97h-2.44
				V108.35z"/>
			<path class="st14" d="M495.07,112.46v1.26h-6.93v-10.56h6.82v1.26h-5.29v3.31h4.89v1.26h-4.89v3.48H495.07z"/>
		</g>
	</g>
</g>
<text transform="matrix(1 0 0 1 819.4503 265.1703)" style="font-family:'BwModelicaSS01-Medium'; font-size:50.5395px;">Chandra SK</text>
<text transform="matrix(1 0 0 1 825.7828 290.8509)" style="font-family:'BwModelicaSS01-Medium'; font-size:14.2695px;">Interventional pain management centre</text>
</svg>
